inDegrees=yes
name=ik_S41_A09_T01
DataType=double
version=3
OpenSimVersion=4.3-2021-08-27-4bc7ad9
endheader
time	pelvis_tilt	pelvis_list	pelvis_rotation	pelvis_tx	pelvis_ty	pelvis_tz	hip_flexion_r	hip_adduction_r	hip_rotation_r	knee_angle_r	knee_angle_r_beta	ankle_angle_r	subtalar_angle_r	mtp_angle_r	hip_flexion_l	hip_adduction_l	hip_rotation_l	knee_angle_l	knee_angle_l_beta	ankle_angle_l	subtalar_angle_l	mtp_angle_l	lumbar_extension	lumbar_bending	lumbar_rotation	arm_flex_r	arm_add_r	arm_rot_r	elbow_flex_r	pro_sup_r	wrist_flex_r	wrist_dev_r	arm_flex_l	arm_add_l	arm_rot_l	elbow_flex_l	pro_sup_l	wrist_flex_l	wrist_dev_l
0	0	0	0	0	0.9399999999999999	0	0	0	0	0	0	0	0	0	0	0	0	0	0	0	0	0	0	0	0	0	0	0	0	89.99999999963507	0	0	0	0	0	0	89.99999999869995	0	0
0.02	-8.629086347621355	-5.55184379386027	24.06710261686579	0	0.9399999999999999	0	2.181450469323456	-1.022604762040496	-0.7342588480556509	3.39967094548021	0.05933545148301829	0	0	0	2.181450469323456	-1.022604762040496	-0.7342588480556509	3.39967094548021	0.05933545148301829	0	0	0	-8.179584081617463	-4.746096610495091	10.09639846291353	27.5033655884899	-0.002018803178661499	-1.130258669130804	7.313420048203204	88.39048064225739	0	0	22.5257944024629	1.36864182490896	8.811663298468613	17.48699104618862	81.81705839975908	0	0
0.04	-8.547184182477643	-5.606591619556175	24.47833063410996	0	0.9399999999999999	0	4.768395370975344	-2.141000581223248	-1.665400562439472	5.738523151502981	0.1001561231956484	0	0	0	4.768395370975344	-2.141000581223248	-1.665400562439472	5.738523151502981	0.1001561231956484	0	0	0	-8.24383214400439	-4.627684022810779	9.696429376229926	27.49817338099443	0.04039772865949758	-1.110838929732834	7.299695035014832	88.3748918007912	0	0	22.52970943153386	1.333540657311226	8.816923575958915	17.48370837751492	81.78950709837076	0	0
0.06	-8.50994948627465	-5.634401866261249	24.6641174138618	0	0.9399999999999999	0	7.695665469047236	-3.343936668028846	-2.668505686781155	8.516974606652925	0.1486492491948425	0	0	0	7.695665469047236	-3.343936668028846	-2.668505686781155	8.516974606652925	0.1486492491948425	0	0	0	-8.285457999578968	-4.55238956357533	9.516924264288292	27.50906089193843	0.03385195361394221	-1.091420283093643	7.299425269981317	88.36216897294319	0	0	22.52655914069529	1.348076514295437	8.83993618598474	17.48125712197727	81.76333041240977	0	0
0.08	-8.491132317424148	-5.647687066034759	24.77435770034779	0	0.9399999999999999	0	9.732616660005053	-4.122002063808166	-3.333848591203081	10.54794601595143	0.1840963873009708	0	0	0	9.732616660005053	-4.122002063808166	-3.333848591203081	10.54794601595143	0.1840963873009708	0	0	0	-8.303768405108498	-4.517206353387126	9.412530677846283	27.52335098799205	0.03634417759549803	-1.097117365867769	7.292823663148917	88.35155588162937	0	0	22.52742029926868	1.355483150209082	8.854730424755724	17.4754448628608	81.7721043020842	0	0
0.1	-8.275761639125422	-6.032717717927375	26.82975047672211	0	0.9399999999999999	0	35.88974070660604	-13.76411721521721	-11.57941612864069	38.43986029772022	0.6709021262018655	0	0	0	35.88974070660604	-13.76411721521721	-11.57941612864069	38.43986029772022	0.6709021262018655	0	0	0	-8.439256125445679	-3.779118410459983	7.452700801912014	27.48082614527495	0.0418104522508775	-1.152114854546401	7.286584590491834	88.38302730121995	0	0	22.4774879941199	1.362346467047392	8.848834299764516	17.43793543474055	81.76866672423694	0	0
0.12	-8.275050251820948	-6.03113257067433	26.84485487432671	0	0.9399999999999999	0	35.90035737286074	-13.75087362434901	-11.57563806048467	38.45367991187614	0.6711433239702416	0	0	0	35.90035737286074	-13.75087362434901	-11.57563806048467	38.45367991187614	0.6711433239702416	0	0	0	-8.438458055229708	-3.777996705695768	7.455217564272112	27.48199684915831	0.03829871862411112	-1.176231633514873	7.305023544837622	88.38894566870094	0	0	22.49827391503928	1.367707248797084	8.864599569964588	17.44777783281299	81.75926128171622	0	0
0.14	-8.26754003474184	-6.029242344818522	26.8471071615557	0	0.9399999999999999	0	35.92208582446619	-13.73059286569615	-11.56888933181505	38.48261780818278	0.6716483855393932	0	0	0	35.92208582446619	-13.73059286569615	-11.56888933181505	38.48261780818278	0.6716483855393932	0	0	0	-8.432814608422138	-3.778077804382604	7.451245050850416	27.46677537312811	0.02887781928694632	-1.185280462328371	7.288705124429428	88.3894013273367	0	0	22.49020183370754	1.357557598240205	8.854043110682854	17.50451108587053	81.75656304289735	0	0
